<?xml version="1.0" encoding="UTF-8"?>
<svg version="1.1" xmlns="http://www.w3.org/2000/svg" width="64" height="64">
<path d="M0 0 C0.99 0 1.98 0 3 0 C2.50000658 6.12491944 1.30342663 8.2190034 -2 14 C5.26 14 12.52 14 20 14 C18.35 11.03 16.7 8.06 15 5 C15 3.35 15 1.7 15 0 C17.80232125 0.35180656 18.7935861 0.7521058 20.6328125 2.9609375 C21.12523437 3.75757813 21.61765625 4.55421875 22.125 5.375 C22.62257812 6.16648437 23.12015625 6.95796875 23.6328125 7.7734375 C24.08398438 8.50820313 24.53515625 9.24296875 25 10 C25.66 10.99 26.32 11.98 27 13 C29.6556728 13.58348752 29.6556728 13.58348752 32.625 13.6875 C33.62789062 13.75324219 34.63078125 13.81898437 35.6640625 13.88671875 C36.43492188 13.92410156 37.20578125 13.96148437 38 14 C38 15.32 38 16.64 38 18 C37.01 18 36.02 18 35 18 C34.96261719 18.62003906 34.92523438 19.24007813 34.88671875 19.87890625 C34.46126115 25.61007044 33.74558096 31.27786126 32.75 36.9375 C32.53859375 38.18402344 32.3271875 39.43054687 32.109375 40.71484375 C30.74970965 44.74117672 29.57627493 45.75748991 26 48 C23.27580887 48.39064429 20.96671617 48.56257515 18.25 48.53125 C17.51426758 48.5350769 16.77853516 48.53890381 16.02050781 48.54284668 C14.47068914 48.54555903 12.92082416 48.53824519 11.37109375 48.52148438 C9.00676857 48.50006133 6.64548134 48.52130511 4.28125 48.546875 C2.77082667 48.5442316 1.26040521 48.53910636 -0.25 48.53125 C-0.9522168 48.53934692 -1.65443359 48.54744385 -2.37792969 48.55578613 C-5.836984 48.49012116 -7.91053886 48.05346574 -10.89916992 46.26733398 C-13.19542344 43.78908803 -13.80089479 42.48080628 -14.36328125 39.19140625 C-14.52763672 38.27939453 -14.69199219 37.36738281 -14.86132812 36.42773438 C-15.01021484 35.48220703 -15.15910156 34.53667969 -15.3125 33.5625 C-15.48072266 32.62083984 -15.64894531 31.67917969 -15.82226562 30.70898438 C-16.56517476 26.41224052 -17.08714802 22.36957249 -17 18 C-17.99 18 -18.98 18 -20 18 C-20 16.68 -20 15.36 -20 14 C-18.93072266 14.08314453 -18.93072266 14.08314453 -17.83984375 14.16796875 C-14.59148055 14.18982853 -12.1003935 14.00846133 -9 13 C-5.97427946 9.66531503 -4.07278017 5.9703107 -2 2 C-1.34 1.34 -0.68 0.68 0 0 Z M-12 18 C-11.54730899 29.68581978 -11.54730899 29.68581978 -7 43 C-4.64775408 43.12553427 -2.32639257 43.18859672 0.02734375 43.203125 C1.08351646 43.21167511 1.08351646 43.21167511 2.161026 43.22039795 C3.65315238 43.22985963 5.14529976 43.23638656 6.63745117 43.24023438 C8.9246855 43.24994559 11.21102349 43.28095825 13.49804688 43.3125 C14.94530714 43.31902925 16.39257386 43.32428003 17.83984375 43.328125 C18.86959572 43.3466452 18.86959572 43.3466452 19.92015076 43.36553955 C22.05962262 43.3901636 22.05962262 43.3901636 25 43 C26.86925857 40.19611215 27.33995511 39.07604003 27.8515625 35.91015625 C27.98046875 35.12576172 28.109375 34.34136719 28.2421875 33.53320312 C28.43167969 32.31020508 28.43167969 32.31020508 28.625 31.0625 C28.7590625 30.25103516 28.893125 29.43957031 29.03125 28.60351562 C29.61434446 24.97702508 30 21.69442628 30 18 C16.14 18 2.28 18 -12 18 Z " fill="#000000" transform="translate(23,8)"/>
<path d="M0 0 C1.32 0 2.64 0 4 0 C4 4.95 4 9.9 4 15 C2.35 14.67 0.7 14.34 -1 14 C-1.02685938 11.85423363 -1.04633088 9.70837355 -1.0625 7.5625 C-1.07410156 6.36753906 -1.08570313 5.17257813 -1.09765625 3.94140625 C-1 1 -1 1 0 0 Z " fill="#000000" transform="translate(41,31)"/>
<path d="M0 0 C2.475 0.495 2.475 0.495 5 1 C5 5.29 5 9.58 5 14 C3.35 14.33 1.7 14.66 0 15 C0 10.05 0 5.1 0 0 Z " fill="#000000" transform="translate(19,31)"/>
<path d="M0 0 C1.32 0 2.64 0 4 0 C4 4.95 4 9.9 4 15 C2.68 15 1.36 15 0 15 C0 10.05 0 5.1 0 0 Z " fill="#000000" transform="translate(30,31)"/>
</svg>
